# xmcd
#
# Track frame offsets: 
#        150
#        15730
#        31144
#        46756
#        62002
#        79753
#        96263
#        112080
#        128412
#        144829
#        161464
#
# Disc length: 2355 seconds
#
# Revision: 0
# Processed by: cddbd v1.5.2PL0 Copyright (c) Steve Scherf et al.
# Submitted via: ExactAudioCopyFreeDBPlugin 1.0
#
DISCID=7f09310b
DTITLE=Trace Adkins - Cowboy's Back In Town
DYEAR=2010
DGENRE=Country
TTITLE0=Brown Chicken Brown Cow
TTITLE1=Hold My Beer
TTITLE2=Cowboy's Back In Town
TTITLE3=This Ain't No Love Song
TTITLE4=Hell, I Can Do That
TTITLE5=A Little Bit Of Missin' You
TTITLE6=Still Love You
TTITLE7=Don't Mind If I Don't (With Trailer Choir)
TTITLE8=Ala-Freakin-Bama
TTITLE9=Break Her Fall
TTITLE10=Whoop A Man's Ass
EXTD=
EXTT0=
EXTT1=
EXTT2=
EXTT3=
EXTT4=
EXTT5=
EXTT6=
EXTT7=
EXTT8=
EXTT9=
EXTT10=
PLAYORDER=
